<?xml version="1.0" standalone="no"?> <!DOCTYPE svg PUBLIC "-//W3C//DTD SVG 1.0//EN" "http://www.w3.org/TR/2001/REC-SVG-20010904/DTD/svg10.dtd" > <svg xmlns="http://www.w3.org/2000/svg" width="100%" height="100%">
<defs >
<font id="prov" horiz-adv-x="429" ><font-face
    font-family="HelveticaNeueLT Pro 45 Lt"
    units-per-em="1000"
    panose-1="2 11 4 3 2 2 2 2 2 4"
    ascent="714"
    descent="-286"
    alphabetic="0" />
<missing-glyph horiz-adv-x="512" d="M222 117H278V184H222V117ZM225 234H271Q271 286 277 306Q283 325 320 358Q357 392 370 418T383 478Q383 537 348 573T259 609Q203 609 167 575T124 472L174 464Q185 559 256 559Q287 559 309 535T332 474Q332 454 323 437T282
391Q251 360 236 332Q223 307 223 251L225 234ZM462 50H50V667H462V50ZM512 718H0V0H512V718Z" />
<glyph unicode=" " glyph-name="space" horiz-adv-x="278" />
<glyph unicode="!" glyph-name="exclam" horiz-adv-x="241" d="M163 0H79V106H163V0ZM102 178L87 501V714H155V501L140 178H102Z" />
<glyph unicode="&quot;" glyph-name="quotedbl" horiz-adv-x="370" d="M220 471V714H283V471H220ZM87 471V714H150V471H87Z" />
<glyph unicode="#" glyph-name="numbersign" horiz-adv-x="556" d="M364 424H223L201 268H342L364 424ZM497 268V223H386L355 0H305L336 223H195L164 0H114L145 223H35V268H151L173 424H63V469H179L210 691H260L229 469H370L401 691H451L420 469H525V424H414L392
268H497Z" />
<glyph unicode="$" glyph-name="dollar" horiz-adv-x="556" d="M29 228H92Q93 57 257 38V334Q208 344 176 356T111 390T63 448T47 534Q47 622 107 675T257 729V807H296V729Q386 729 448 669T508 512H445Q444 587 403 631T296 676V388Q347 377 382 365T453 331T508
272T527 185Q527 91 459 38T296 -15V-100H257V-14Q141 -3 87 55T29 228ZM257 397V676Q192 676 151 639T110 527Q110 494 121 471T157 434T201 413T257 397ZM296 326V38Q366 38 415 74T464 184Q464 218 450 243T408 284T356 308T296 326Z" />
<glyph unicode="%" glyph-name="percent" horiz-adv-x="889" d="M147 706T228 706T348 655T387 517T348 380T228 328T108 379T69 517T108 654ZM667 318Q627 318 602 294T569 240T561 173Q561 137 569 107T602 54T667 30Q723 30 748 73T773 173Q773 231 748 274T667
318ZM586 363T667 363T787 312T826 174T787 37T667 -15T547 36T508 174T547 311ZM190 -34L643 725H690L238 -34H190ZM228 661Q188 661 163 637T130 583T122 516Q122 480 130 450T163 397T228 373Q284 373 309 416T334 516Q334 574 309 617T228 661Z" />
<glyph unicode="&amp;" glyph-name="ampersand" horiz-adv-x="611" d="M325 661T284 661T216 637T189 569Q189 546 204 516T232 470T269 425Q301 446 321 462T360 507T379 569Q379 612 352 636ZM541 0L465 93Q379 -15 255 -15Q160 -15 100 38T39 185Q39 303 214
397Q211 401 198 418T179 441T163 463T148 489T137 513T129 541T126 569Q126 633 171 673T284 714T396 674T442 569Q442 509 406 468T302 384L458 196Q479 239 479 316H542Q542 223 500 145L620 0H541ZM426 140L248 356Q102 278 102 179Q102 118 148 78T257 38Q354
38 426 140Z" />
<glyph unicode="&apos;" glyph-name="quotesingle" horiz-adv-x="278" d="M108 471V714H171V471H108Z" />
<glyph unicode="(" glyph-name="parenleft" horiz-adv-x="241" d="M242 -191H192Q121 -73 86 34T51 266Q51 511 192 729H242Q114 523 114 243Q114 136 149 19T242 -191Z" />
<glyph unicode=")" glyph-name="parenright" horiz-adv-x="241" d="M-1 729H49Q120 611 155 504T190 272Q190 27 49 -191H-1Q127 15 127 295Q127 401 92 516T-1 729Z" />
<glyph unicode="*" glyph-name="asterisk" horiz-adv-x="352" d="M142 556L27 595L41 632L156 591V714H195V591L310 632L325 595L207 556L279 458L247 435L174 535L101 435L69 458L142 556Z" />
<glyph unicode="+" glyph-name="plus" horiz-adv-x="600" d="M274 278V503H327V278H552V225H327V0H274V225H49V278H274Z" />
<glyph unicode="," glyph-name="comma" horiz-adv-x="278" d="M97 106H181V-1Q181 -48 158 -87T93 -137V-94Q115 -86 128 -56T139 0H97V106Z" />
<glyph unicode="-" glyph-name="hyphen" horiz-adv-x="370" d="M310 246H60V304H310V246Z" />
<glyph unicode="." glyph-name="period" horiz-adv-x="278" d="M181 0H97V106H181V0Z" />
<glyph unicode="/" glyph-name="slash" horiz-adv-x="333" d="M41 -15H-13L295 729H346L41 -15Z" />
<glyph unicode="0" glyph-name="zero" horiz-adv-x="556" d="M219 706T278 706T381 684T452 627T494 543T516 447T522 346T517 245T495 149T452 65T382 8T278 -15T175 7T104 64T62 148T40 244T34 345T39 446T61 542T104 626T174 683ZM459 653T278 653T97 346Q97
38 278 38T459 346Q459 653 278 653Z" />
<glyph unicode="1" glyph-name="one" horiz-adv-x="556" d="M97 520V565Q138 566 159 568T207 577T249 598T275 637T294 700H345V0H282V520H97Z" />
<glyph unicode="2" glyph-name="two" horiz-adv-x="556" d="M497 58V0H36Q37 59 60 107T123 190T203 252T293 314T373 378Q431 436 431 510Q431 576 386 614T274 653Q193 653 154 598T116 458H53Q51 570 108 638T277 706Q372 706 433 655T494 509Q494 429 447
371T318 260Q311 255 274 232T218 195T171 158T128 109T108 58H497Z" />
<glyph unicode="3" glyph-name="three" horiz-adv-x="556" d="M33 223H96Q92 139 139 89T271 38Q344 38 397 79T450 193T403 303T282 341H229V394H282Q337 394 380 426T424 521Q424 587 381 620T271 653Q194 653 152 604T112 476H49Q49 577 109 641T270 706Q360
706 423 661T487 528Q487 470 456 429T369 373V371Q437 360 475 314T513 198Q513 99 444 42T272 -15Q161 -15 93 49T33 223Z" />
<glyph unicode="4" glyph-name="four" horiz-adv-x="556" d="M87 227H353V608H351L87 227ZM30 174V235L354 700H411V227H516V174H411V0H353V174H30Z" />
<glyph unicode="5" glyph-name="five" horiz-adv-x="556" d="M36 200H99Q101 128 149 83T271 38Q350 38 398 94T446 229Q446 307 396 359T267 411Q166 411 111 328H57L125 691H475V633H169L124 401L126 399Q152 429 192 446T274 464Q381 464 445 397T509 222Q509
121 438 53T266 -15Q167 -15 103 43T36 200Z" />
<glyph unicode="6" glyph-name="six" horiz-adv-x="556" d="M505 523H442Q434 582 395 617T296 653Q238 653 198 623T138 543T111 444T103 340H105Q130 392 180 424T291 456Q395 456 458 391T522 222T456 52T285 -15Q156 -15 98 70T40 357Q40 390 43 426T62 515T103
608T176 677T290 706Q483 706 505 523ZM290 403Q210 403 163 351T116 218T159 88T291 38Q364 38 411 90T459 218Q459 297 414 350T290 403Z" />
<glyph unicode="7" glyph-name="seven" horiz-adv-x="556" d="M51 633V691H501V633Q469 600 439 564T369 465T299 337T246 182T218 0H150Q162 179 227 323T438 633H51Z" />
<glyph unicode="8" glyph-name="eight" horiz-adv-x="556" d="M278 401Q340 399 383 433T427 531Q427 589 386 621T278 653Q216 653 172 621T128 531Q128 465 172 432T278 401ZM490 531Q490 474 460 434T376 377V375Q444 361 481 314T519 196Q519 95 451 40T278
-15T106 40T37 196Q39 266 77 314T179 375V377Q65 413 65 531Q65 615 128 660T277 706T426 661T490 531ZM278 38Q357 38 406 78T456 196Q456 268 404 309T278 348Q202 350 151 310T100 196Q100 120 150 79T278 38Z" />
<glyph unicode="9" glyph-name="nine" horiz-adv-x="556" d="M51 168H114Q122 109 161 74T260 38Q318 38 358 68T418 148T445 247T453 351H451Q426 299 376 267T265 235Q161 235 98 300T34 469T100 639T271 706Q400 706 458 621T516 334Q516 301 513 265T494 176T453
83T380 14T266 -15Q73 -15 51 168ZM266 288Q346 288 393 340T440 473T397 603T265 653Q192 653 145 601T97 473Q97 394 142 341T266 288Z" />
<glyph unicode=":" glyph-name="colon" horiz-adv-x="278" d="M181 0H97V106H181V0ZM181 394H97V500H181V394Z" />
<glyph unicode=";" glyph-name="semicolon" horiz-adv-x="278" d="M181 394H97V500H181V394ZM97 106H181V-1Q181 -48 158 -87T93 -137V-94Q115 -86 128 -56T139 0H97V106Z" />
<glyph unicode="&lt;" glyph-name="less" horiz-adv-x="600" d="M554 47V-8L46 226V280L554 514V459L108 253L554 47Z" />
<glyph unicode="=" glyph-name="equal" horiz-adv-x="600" d="M552 181V128H49V181H552ZM552 378V325H49V378H552Z" />
<glyph unicode="&gt;" glyph-name="greater" horiz-adv-x="600" d="M46 47L492 253L46 459V514L554 280V226L46 -8V47Z" />
<glyph unicode="?" glyph-name="question" horiz-adv-x="537" d="M231 0V106H315V0H231ZM117 494H54Q54 601 114 665T281 729Q367 729 425 679T484 544Q484 492 462 454T397 374Q387 364 366 344T342 320T327 301T315 280T310 257T305 224T304 179H241Q239 264
262 306T356 412Q421 473 421 541Q421 600 379 638T278 676Q199 676 157 625T117 494Z" />
<glyph unicode="@" glyph-name="at" horiz-adv-x="800" d="M614 544L518 256Q493 173 531 173Q596 173 648 253T700 421Q700 541 618 612T416 684Q278 684 189 589T100 353Q100 217 191 124T418 30Q492 30 562 66T676 163H727Q682 82 597 34T418 -15Q257 -15 152
92T47 360Q47 516 153 622T414 729Q560 729 656 642T753 418Q753 301 681 215T521 128Q494 128 476 145T454 195H452Q388 129 325 129Q265 129 229 171T193 274Q193 344 222 409T306 519T430 563Q504 563 536 479L561 544H614ZM426 510Q355 510 306 434T256 279Q256
235 279 209T339 182Q403 182 454 263T505 417Q505 452 480 481T426 510Z" />
<glyph unicode="A" glyph-name="A" horiz-adv-x="630" d="M316 646L173 280H454L316 646ZM-7 0L281 714H357L637 0H564L477 222H152L66 0H-7Z" />
<glyph unicode="B" glyph-name="B" horiz-adv-x="667" d="M140 656V401H374Q452 401 493 435T535 522Q535 656 374 656H140ZM72 0V714H374Q439 714 487 699T569 643T603 539Q603 482 569 437T479 379V377Q548 368 589 321T630 203Q630 178 626 156T607 103T565
52T490 15T374 0H72ZM140 343V58H374Q562 58 562 205Q562 273 514 308T374 343H140Z" />
<glyph unicode="C" glyph-name="C" horiz-adv-x="704" d="M662 498H594Q576 579 516 625T375 671Q307 671 254 644T170 572T122 473T106 357T122 242T169 142T254 70T375 43Q471 43 532 108T604 272H672Q658 139 579 62T375 -15Q293 -15 228 15T122 98T60 216T38
357T59 498T121 616T227 698T375 729Q483 729 565 667T662 498Z" />
<glyph unicode="D" glyph-name="D" horiz-adv-x="685" d="M72 0V714H319Q647 706 647 357T319 0H72ZM140 656V58H285Q440 58 509 128T579 357T510 586T285 656H140Z" />
<glyph unicode="E" glyph-name="E" horiz-adv-x="593" d="M72 0V714H565V656H140V398H538V340H140V58H570V0H72Z" />
<glyph unicode="F" glyph-name="F" horiz-adv-x="537" d="M72 0V714H525V656H140V398H482V340H140V0H72Z" />
<glyph unicode="G" glyph-name="G" horiz-adv-x="741" d="M682 363V0H633L624 130H622Q588 57 523 21T375 -15T228 15T122 98T60 216T38 357T59 498T121 616T227 698T375 729Q491 729 572 668T673 492H605Q598 559 534 615T375 671Q307 671 254 644T170 572T122
473T106 357T122 242T169 142T254 70T375 43Q491 43 557 116T622 305H379V363H682Z" />
<glyph unicode="H" glyph-name="H" horiz-adv-x="704" d="M72 0V714H140V404H564V714H632V0H564V346H140V0H72Z" />
<glyph unicode="I" glyph-name="I" horiz-adv-x="222" d="M77 0V714H145V0H77Z" />
<glyph unicode="J" glyph-name="J" horiz-adv-x="500" d="M360 228V714H428V199Q428 88 381 37T220 -15Q21 -15 21 229H89Q89 226 89 210T90 186T93 162T98 137T106 114T117 91T134 72T158 56T188 47T226 43Q304 43 332 84T360 228Z" />
<glyph unicode="K" glyph-name="K" horiz-adv-x="648" d="M72 0V714H140V330L555 714H647L328 419L662 0H574L277 372L140 245V0H72Z" />
<glyph unicode="L" glyph-name="L" horiz-adv-x="537" d="M72 0V714H140V58H540V0H72Z" />
<glyph unicode="M" glyph-name="M" horiz-adv-x="833" d="M70 0V714H170L417 88L663 714H763V0H695V617H693L449 0H385L140 617H138V0H70Z" />
<glyph unicode="N" glyph-name="N" horiz-adv-x="704" d="M71 0V714H147L563 110H565V714H633V0H557L141 604H139V0H71Z" />
<glyph unicode="O" glyph-name="O" horiz-adv-x="741" d="M102 418T102 357T118 242T165 142T250 70T371 43T492 70T576 142T623 241T639 357T623 472T576 572T492 644T371 671T250 644T166 572T118 473ZM34 282T34 357T55 498T117 616T223 698T371 729Q479 729
556 676T670 541T707 357T671 174T557 38T371 -15Q289 -15 224 15T118 98T56 216Z" />
<glyph unicode="P" glyph-name="P" horiz-adv-x="630" d="M140 656V364H374Q448 364 490 401T533 510T491 619T374 656H140ZM72 0V714H389Q486 714 543 660T601 510T544 360T389 306H140V0H72Z" />
<glyph unicode="Q" glyph-name="Q" horiz-adv-x="741" d="M701 -4L667 -46L556 38Q482 -15 371 -15Q289 -15 224 15T118 98T56 216T34 357T55 498T117 616T223 698T371 729Q479 729 556 676T670 541T707 357Q707 178 599 74L701 -4ZM444 192L548 113Q639 198 639
357Q639 418 623 472T576 572T492 644T371 671T250 644T166 572T118 473T102 357T118 242T165 142T250 70T371 43Q447 43 503 78L409 149L444 192Z" />
<glyph unicode="R" glyph-name="R" horiz-adv-x="667" d="M140 656V375H394Q459 375 503 413T548 514Q548 581 509 618T394 656H140ZM72 0V714H399Q493 714 554 667T616 528Q616 458 580 409T477 346V344Q543 335 570 295T602 183Q602 180 603 150T606 106T611
67T620 26T635 0H560Q554 9 551 25T546 53T543 85T541 111Q539 149 537 172T526 227T503 276T462 306T398 317H140V0H72Z" />
<glyph unicode="S" glyph-name="S" horiz-adv-x="630" d="M36 235H104Q100 43 337 43Q378 43 419 56T493 105T526 188Q526 282 379 317L220 356Q146 375 103 413T59 528Q59 558 70 589T106 654T182 708T305 729Q418 729 493 671T569 507H501Q497 585 442 628T306
671Q228 671 178 637T127 529Q127 444 235 420L409 377Q496 354 545 312T594 189Q594 169 591 149T571 97T527 42T447 2T321 -15Q187 -15 109 47T36 235Z" />
<glyph unicode="T" glyph-name="T" horiz-adv-x="556" d="M-5 656V714H561V656H312V0H244V656H-5Z" />
<glyph unicode="U" glyph-name="U" horiz-adv-x="685" d="M65 257V714H133V272Q133 152 186 98T342 43T498 97T552 272V714H620V257Q620 137 552 61T342 -15Q202 -15 134 61T65 257Z" />
<glyph unicode="V" glyph-name="V" horiz-adv-x="593" d="M258 0L-7 714H66L298 75H300L530 714H602L337 0H258Z" />
<glyph unicode="W" glyph-name="W" horiz-adv-x="907" d="M198 0L0 714H73L235 89H237L411 714H496L671 89H673L836 714H904L707 0H635L454 639H452L272 0H198Z" />
<glyph unicode="X" glyph-name="X" horiz-adv-x="574" d="M245 368L3 714H83L285 415L494 714H570L326 366L584 0H502L285 315L65 0H-12L245 368Z" />
<glyph unicode="Y" glyph-name="Y" horiz-adv-x="611" d="M271 0V294L-10 714H71L306 352L540 714H621L339 294V0H271Z" />
<glyph unicode="Z" glyph-name="Z" horiz-adv-x="574" d="M37 656V714H551V654L81 58H561V0H5V60L475 656H37Z" />
<glyph unicode="[" glyph-name="bracketleft" horiz-adv-x="241" d="M237 -191H76V729H237V676H139V-138H237V-191Z" />
<glyph unicode="\" glyph-name="backslash" horiz-adv-x="333" d="M346 -15H292L-13 729H38L346 -15Z" />
<glyph unicode="]" glyph-name="bracketright" horiz-adv-x="241" d="M4 729H165V-191H4V-138H102V676H4V729Z" />
<glyph unicode="^" glyph-name="asciicircum" horiz-adv-x="600" d="M102 238H44L274 691H326L556 238H499L299 628L102 238Z" />
<glyph unicode="_" glyph-name="underscore" horiz-adv-x="500" d="M500 -125H0V-75H500V-125Z" />
<glyph unicode="`" glyph-name="grave" horiz-adv-x="185" d="M101 588L-31 729H47L152 588H101Z" />
<glyph unicode="a" glyph-name="a" horiz-adv-x="519" d="M117 358H54Q59 446 114 488T263 531Q453 531 453 365V91Q453 53 490 53Q501 53 510 57V4Q490 0 469 0Q425 0 410 22T395 90H393Q356 35 316 10T205 -15Q129 -15 81 23T32 136Q32 164 40 186T58 224T91
252T130 271T178 284T228 292T283 299Q300 301 309 302Q353 306 371 319T390 372Q390 431 354 454T255 478Q193 478 156 449T117 358ZM390 200V282H388Q380 267 335 259Q318 256 281 251T224 242T176 230T133 211T107 183T95 140Q95 94 129 66T210 38Q286 38 338
82T390 200Z" />
<glyph unicode="b" glyph-name="b" horiz-adv-x="574" d="M60 0V714H123V418H125Q144 471 194 501T304 531Q416 531 476 453T536 258T476 63T304 -15Q241 -15 192 15T120 98H118V0H60ZM473 201T473 258T457 363T401 444T304 478Q212 478 168 414T123 258T167 103T304
38Q361 38 400 71T456 153Z" />
<glyph unicode="c" glyph-name="c" horiz-adv-x="519" d="M487 354H424Q397 478 278 478Q193 478 145 413T97 258T145 104T278 38Q336 38 379 80T428 185H491Q478 91 422 38T278 -15Q164 -15 99 63T34 258T99 452T278 531Q364 531 420 486T487 354Z" />
<glyph unicode="d" glyph-name="d" horiz-adv-x="574" d="M514 714V0H456V98H454Q434 48 381 17T270 -15Q158 -15 98 63T38 258T98 453T270 531Q330 531 380 501T449 418H451V714H514ZM101 315T101 258T117 153T173 72T270 38Q362 38 406 102T451 258T407 413T270
478Q213 478 174 445T118 363Z" />
<glyph unicode="e" glyph-name="e" horiz-adv-x="519" d="M97 294H431Q429 369 384 423T267 478Q194 478 150 425T97 294ZM494 241H97Q97 162 140 100T267 38Q396 38 429 170H492Q449 -15 267 -15Q151 -15 93 62T34 258Q34 330 57 389T134 490T267 531Q346 531
399 488T475 381T494 241Z" />
<glyph unicode="f" glyph-name="f" horiz-adv-x="259" d="M259 516V463H157V0H94V463H6V516H94V563Q94 637 121 675T219 714Q245 714 272 710V656Q244 661 226 661Q206 661 193 656T172 643T162 620T158 594T157 561V516H259Z" />
<glyph unicode="g" glyph-name="g" horiz-adv-x="556" d="M496 516V42Q496 -79 442 -142T267 -206Q182 -206 121 -167T53 -50H116Q125 -103 167 -128T267 -153Q353 -153 393 -104T433 42V112H431Q409 63 366 35T267 6Q149 6 92 79T34 271Q34 382 96 456T267 531Q322
531 366 502T431 427H433V516H496ZM267 59Q345 59 389 119T433 264Q433 350 392 414T267 478Q183 478 140 416T97 264Q97 179 140 119T267 59Z" />
<glyph unicode="h" glyph-name="h" horiz-adv-x="537" d="M59 0V714H122V427H124Q142 473 188 502T289 531Q393 531 435 481T478 332V0H415V322Q415 478 284 478Q210 478 167 429T122 301V0H59Z" />
<glyph unicode="i" glyph-name="i" horiz-adv-x="185" d="M61 613V714H124V613H61ZM61 0V516H124V0H61Z" />
<glyph unicode="j" glyph-name="j" horiz-adv-x="185" d="M61 613V714H124V613H61ZM61 -63V516H124V-48Q124 -191 14 -191Q6 -191 -8 -190T-30 -189V-137Q-8 -139 4 -138Q38 -138 49 -119T61 -63Z" />
<glyph unicode="k" glyph-name="k" horiz-adv-x="500" d="M60 0V714H123V266L409 516H493L273 325L508 0H429L225 281L123 196V0H60Z" />
<glyph unicode="l" glyph-name="l" horiz-adv-x="185" d="M61 0V714H124V0H61Z" />
<glyph unicode="m" glyph-name="m" horiz-adv-x="833" d="M60 0V516H118V429H121Q174 531 290 531Q343 531 383 505T438 430Q460 479 504 505T602 531Q773 531 773 350V0H710V347Q710 413 682 445T588 478Q448 478 448 292V0H385V350Q385 478 277 478Q200 478
162 426T123 288V0H60Z" />
<glyph unicode="n" glyph-name="n" horiz-adv-x="537" d="M59 0V516H122V427H124Q142 473 188 502T289 531Q393 531 435 481T478 332V0H415V322Q415 478 284 478Q210 478 167 429T122 301V0H59Z" />
<glyph unicode="o" glyph-name="o" horiz-adv-x="556" d="M363 478T278 478T145 413T97 258T145 104T278 38T411 103T459 258T411 412ZM164 531T278 531T457 453T522 258T457 64T278 -15T99 63T34 258T99 452Z" />
<glyph unicode="p" glyph-name="p" horiz-adv-x="574" d="M60 -191V516H118V418H120Q142 471 191 501T304 531Q416 531 476 453T536 258T476 63T304 -15Q244 -15 194 14T125 98H123V-191H60ZM473 201T473 258T457 363T401 444T304 478Q123 478 123 258Q123 167
167 103T304 38Q361 38 400 71T456 153Z" />
<glyph unicode="q" glyph-name="q" horiz-adv-x="574" d="M514 516V-191H451V98H449Q430 44 380 15T270 -15Q158 -15 98 63T38 258T98 453T270 531Q328 531 381 500T454 418H456V516H514ZM101 315T101 258T117 153T173 72T270 38Q362 38 406 102T451 258T407 413T270
478Q213 478 174 445T118 363Z" />
<glyph unicode="r" glyph-name="r" horiz-adv-x="315" d="M60 0V516H118V395H120Q144 459 195 492T315 523V460Q231 464 177 411T123 275V0H60Z" />
<glyph unicode="s" glyph-name="s" horiz-adv-x="481" d="M432 365H369Q367 421 329 449T234 478Q185 478 149 457T112 389Q112 329 219 302L303 283Q365 274 407 238T450 140Q450 63 388 24T243 -15Q47 -15 31 167H94Q98 105 139 72T246 38Q300 38 343 62T387
136Q387 177 357 197T274 230L193 248Q122 266 86 296T49 386Q49 459 107 495T243 531Q324 531 376 489T432 365Z" />
<glyph unicode="t" glyph-name="t" horiz-adv-x="296" d="M160 671V516H265V463H160V115Q160 81 170 65T211 47Q238 47 265 50V-4Q256 -4 237 -5T209 -6Q146 -6 121 19T97 110V463H7V516H97V671H160Z" />
<glyph unicode="u" glyph-name="u" horiz-adv-x="537" d="M478 516V0H420V93H418Q394 42 346 14T240 -15Q59 -15 59 181V516H122V180Q124 108 155 73T260 38Q336 38 375 98T415 245V516H478Z" />
<glyph unicode="v" glyph-name="v" horiz-adv-x="463" d="M201 0L2 516H72L234 63H236L396 516H461L268 0H201Z" />
<glyph unicode="w" glyph-name="w" horiz-adv-x="741" d="M174 0L8 516H75L207 74H209L335 516H406L532 74H534L666 516H733L567 0H498L371 434H369L243 0H174Z" />
<glyph unicode="x" glyph-name="x" horiz-adv-x="481" d="M1 0L201 268L16 516H95L242 320L386 516H465L279 269L480 0H400L238 217L79 0H1Z" />
<glyph unicode="y" glyph-name="y" horiz-adv-x="463" d="M208 2L2 516H69L239 76L398 516H461L237 -79Q208 -147 183 -169T101 -191Q63 -189 53 -186V-133Q78 -138 96 -138Q116 -138 130 -133T154 -115T170 -91T186 -57L208 2Z" />
<glyph unicode="z" glyph-name="z" horiz-adv-x="463" d="M432 471L91 53H446V0H15V51L352 463H38V516H432V471Z" />
<glyph unicode="{" glyph-name="braceleft" horiz-adv-x="333" d="M293 -191H243Q201 -191 178 -158T155 -66V82Q155 242 83 242V295Q155 295 155 455V604Q155 662 178 695T243 729H293V676H273Q245 676 232 647T218 573V432Q218 394 210 363T188 312T165 284T148
270V268Q156 263 165 254T187 226T209 176T218 106V-35Q218 -80 231 -109T273 -138H293V-191Z" />
<glyph unicode="|" glyph-name="bar" horiz-adv-x="222" d="M85 -214V786H138V-214H85Z" />
<glyph unicode="}" glyph-name="braceright" horiz-adv-x="333" d="M40 729H90Q132 729 155 696T178 604V456Q178 296 250 296V243Q178 243 178 83V-66Q178 -124 155 -157T90 -191H40V-138H60Q88 -138 101 -109T115 -35V106Q115 144 123 175T145 226T168 254T185
268V270Q177 275 168 284T146 312T124 362T115 432V573Q115 617 102 646T60 676H40V729Z" />
<glyph unicode="~" glyph-name="asciitilde" horiz-adv-x="600" d="M495 315L531 279Q504 238 476 216T406 193T296 226Q226 258 189 258Q137 258 105 189L69 225Q111 311 194 311Q235 311 309 279Q385 246 407 246Q434 246 453 264T495 315Z" />
</font>
</defs>
</svg>
